<svg width="32" height="49" viewBox="0 0 32 49" fill="none" xmlns="http://www.w3.org/2000/svg">
<g filter="url(#filter0_d_2825_25678)">
<path d="M0.952 45H-1.048C-1.048 46.1046 -0.152569 47 0.952 47V45ZM0.952 0.199997V-1.8C-0.152569 -1.8 -1.048 -0.904573 -1.048 0.199997H0.952ZM6.392 0.199997H8.392C8.392 -0.904573 7.49657 -1.8 6.392 -1.8V0.199997ZM6.392 45V47C7.49657 47 8.392 46.1046 8.392 45H6.392ZM5.752 45H3.752C3.752 46.1046 4.64743 47 5.752 47V45ZM5.752 40.072V38.072C4.64743 38.072 3.752 38.9674 3.752 40.072H5.752ZM27.576 40.072H29.576C29.576 38.9674 28.6806 38.072 27.576 38.072V40.072ZM27.576 45V47C28.6806 47 29.576 46.1046 29.576 45H27.576ZM5.752 24.456H3.752C3.752 25.5606 4.64743 26.456 5.752 26.456V24.456ZM5.752 19.592V17.592C4.64743 17.592 3.752 18.4874 3.752 19.592H5.752ZM25.592 19.592H27.592C27.592 18.4874 26.6966 17.592 25.592 17.592V19.592ZM25.592 24.456V26.456C26.6966 26.456 27.592 25.5606 27.592 24.456H25.592ZM5.752 5.128H3.752C3.752 6.23257 4.64743 7.128 5.752 7.128V5.128ZM5.752 0.199997V-1.8C4.64743 -1.8 3.752 -0.904573 3.752 0.199997H5.752ZM27.448 0.199997H29.448C29.448 -0.904573 28.5526 -1.8 27.448 -1.8V0.199997ZM27.448 5.128V7.128C28.5526 7.128 29.448 6.23257 29.448 5.128H27.448ZM2.952 45V0.199997H-1.048V45H2.952ZM0.952 2.2H6.392V-1.8H0.952V2.2ZM4.392 0.199997V45H8.392V0.199997H4.392ZM6.392 43H0.952V47H6.392V43ZM7.752 45V40.072H3.752V45H7.752ZM5.752 42.072H27.576V38.072H5.752V42.072ZM25.576 40.072V45H29.576V40.072H25.576ZM27.576 43H5.752V47H27.576V43ZM7.752 24.456V19.592H3.752V24.456H7.752ZM5.752 21.592H25.592V17.592H5.752V21.592ZM23.592 19.592V24.456H27.592V19.592H23.592ZM25.592 22.456H5.752V26.456H25.592V22.456ZM7.752 5.128V0.199997H3.752V5.128H7.752ZM5.752 2.2H27.448V-1.8H5.752V2.2ZM25.448 0.199997V5.128H29.448V0.199997H25.448ZM27.448 3.128H5.752V7.128H27.448V3.128Z" fill="#F97316"/>
</g>
<defs>
<filter id="filter0_d_2825_25678" x="0.952026" y="0.199951" width="30.624" height="48.8" filterUnits="userSpaceOnUse" color-interpolation-filters="sRGB">
<feFlood flood-opacity="0" result="BackgroundImageFix"/>
<feColorMatrix in="SourceAlpha" type="matrix" values="0 0 0 0 0 0 0 0 0 0 0 0 0 0 0 0 0 0 127 0" result="hardAlpha"/>
<feOffset dx="4" dy="4"/>
<feComposite in2="hardAlpha" operator="out"/>
<feColorMatrix type="matrix" values="0 0 0 0 0.976471 0 0 0 0 0.45098 0 0 0 0 0.0862745 0 0 0 0.25 0"/>
<feBlend mode="normal" in2="BackgroundImageFix" result="effect1_dropShadow_2825_25678"/>
<feBlend mode="normal" in="SourceGraphic" in2="effect1_dropShadow_2825_25678" result="shape"/>
</filter>
</defs>
</svg>
