<svg width="140" height="38" viewBox="0 0 140 38" fill="none" xmlns="http://www.w3.org/2000/svg">
<path d="M2.79 30H0.79C0.79 31.1046 1.68543 32 2.79 32V30ZM2.79 9V7C1.68543 7 0.79 7.89543 0.79 9H2.79ZM5.34 9H7.34C7.34 7.89543 6.44457 7 5.34 7V9ZM5.34 30V32C6.44457 32 7.34 31.1046 7.34 30H5.34ZM5.04 30H3.04C3.04 31.1046 3.93543 32 5.04 32V30ZM5.04 27.69V25.69C3.93543 25.69 3.04 26.5854 3.04 27.69H5.04ZM15.27 27.69H17.27C17.27 26.5854 16.3746 25.69 15.27 25.69V27.69ZM15.27 30V32C16.3746 32 17.27 31.1046 17.27 30H15.27ZM5.04 20.37H3.04C3.04 21.4746 3.93543 22.37 5.04 22.37V20.37ZM5.04 18.09V16.09C3.93543 16.09 3.04 16.9854 3.04 18.09H5.04ZM14.34 18.09H16.34C16.34 16.9854 15.4446 16.09 14.34 16.09V18.09ZM14.34 20.37V22.37C15.4446 22.37 16.34 21.4746 16.34 20.37H14.34ZM5.04 11.31H3.04C3.04 12.4146 3.93543 13.31 5.04 13.31V11.31ZM5.04 9V7C3.93543 7 3.04 7.89543 3.04 9H5.04ZM15.21 9H17.21C17.21 7.89543 16.3146 7 15.21 7V9ZM15.21 11.31V13.31C16.3146 13.31 17.21 12.4146 17.21 11.31H15.21ZM4.79 30V9H0.79V30H4.79ZM2.79 11H5.34V7H2.79V11ZM3.34 9V30H7.34V9H3.34ZM5.34 28H2.79V32H5.34V28ZM7.04 30V27.69H3.04V30H7.04ZM5.04 29.69H15.27V25.69H5.04V29.69ZM13.27 27.69V30H17.27V27.69H13.27ZM15.27 28H5.04V32H15.27V28ZM7.04 20.37V18.09H3.04V20.37H7.04ZM5.04 20.09H14.34V16.09H5.04V20.09ZM12.34 18.09V20.37H16.34V18.09H12.34ZM14.34 18.37H5.04V22.37H14.34V18.37ZM7.04 11.31V9H3.04V11.31H7.04ZM5.04 11H15.21V7H5.04V11ZM13.21 9V11.31H17.21V9H13.21ZM15.21 9.31H5.04V13.31H15.21V9.31Z" fill="#F97316"/>
<path d="M21.664 22.576H20.664C20.664 23.1283 21.1117 23.576 21.664 23.576V22.576ZM21.664 18.352V17.352C21.1117 17.352 20.664 17.7997 20.664 18.352H21.664ZM31.264 18.352H32.264C32.264 17.7997 31.8163 17.352 31.264 17.352V18.352ZM31.264 22.576V23.576C31.8163 23.576 32.264 23.1283 32.264 22.576H31.264ZM22.664 22.576V18.352H20.664V22.576H22.664ZM21.664 19.352H31.264V17.352H21.664V19.352ZM30.264 18.352V22.576H32.264V18.352H30.264ZM31.264 21.576H21.664V23.576H31.264V21.576ZM40.7135 29.328L40.25 30.2141L40.2555 30.217L40.7135 29.328ZM37.5135 26.256L36.6393 26.7417L36.6427 26.7476L37.5135 26.256ZM36.3935 21.488V20.488C35.8412 20.488 35.3935 20.9357 35.3935 21.488H36.3935ZM41.5455 21.488H42.5455C42.5455 20.9357 42.0978 20.488 41.5455 20.488V21.488ZM43.4975 25.136L43.0144 26.0116C43.0186 26.0139 43.0227 26.0161 43.0269 26.0184L43.4975 25.136ZM49.4815 23.696L48.6059 23.2129L49.4815 23.696ZM49.9935 21.488V20.488C49.4412 20.488 48.9935 20.9357 48.9935 21.488H49.9935ZM55.1455 21.488H56.1455C56.1455 20.9357 55.6978 20.488 55.1455 20.488V21.488ZM53.9935 26.256L53.1252 25.7599L53.1227 25.7644L53.9935 26.256ZM50.7295 29.328L50.277 28.4362L50.2715 28.439L50.7295 29.328ZM36.3935 21.488H35.3935C35.3935 22.0403 35.8412 22.488 36.3935 22.488V21.488ZM36.3935 7.6V6.6C35.8412 6.6 35.3935 7.04771 35.3935 7.6H36.3935ZM41.5455 7.6H42.5455C42.5455 7.04771 42.0978 6.6 41.5455 6.6V7.6ZM41.5455 21.488V22.488C42.0978 22.488 42.5455 22.0403 42.5455 21.488H41.5455ZM49.9935 21.488H48.9935C48.9935 22.0403 49.4412 22.488 49.9935 22.488V21.488ZM49.9935 7.6V6.6C49.4412 6.6 48.9935 7.04771 48.9935 7.6H49.9935ZM55.1455 7.6H56.1455C56.1455 7.04771 55.6978 6.6 55.1455 6.6V7.6ZM55.1455 21.488V22.488C55.6978 22.488 56.1455 22.0403 56.1455 21.488H55.1455ZM45.7055 29.416C43.9114 29.416 42.4108 29.0775 41.1715 28.439L40.2555 30.217C41.8322 31.0292 43.6596 31.416 45.7055 31.416V29.416ZM41.177 28.4419C39.9558 27.8031 39.0331 26.9137 38.3843 25.7644L36.6427 26.7476C37.4872 28.2436 38.6978 29.4022 40.25 30.2141L41.177 28.4419ZM38.3877 25.7704C37.7381 24.6012 37.3935 23.1856 37.3935 21.488H35.3935C35.3935 23.4598 35.7955 25.2228 36.6393 26.7416L38.3877 25.7704ZM36.3935 22.488H41.5455V20.488H36.3935V22.488ZM40.5455 21.488C40.5455 22.4754 40.7436 23.3847 41.1819 24.1791L42.9331 23.2129C42.6887 22.77 42.5455 22.2073 42.5455 21.488H40.5455ZM41.1819 24.1791C41.6144 24.963 42.2305 25.5791 43.0144 26.0116L43.9806 24.2604C43.5272 24.0103 43.1832 23.6663 42.9331 23.2129L41.1819 24.1791ZM43.0269 26.0184C43.8387 26.4513 44.7642 26.648 45.7695 26.648V24.648C45.0254 24.648 44.4363 24.5034 43.9681 24.2536L43.0269 26.0184ZM45.7695 26.648C46.758 26.648 47.6717 26.4495 48.4801 26.0184L47.5389 24.2536C47.0673 24.5052 46.4877 24.648 45.7695 24.648V26.648ZM48.4801 26.0184C49.2861 25.5885 49.9196 24.9719 50.3571 24.1791L48.6059 23.2129C48.3607 23.6574 48.0129 24.0008 47.5389 24.2536L48.4801 26.0184ZM50.3571 24.1791C50.7954 23.3847 50.9935 22.4754 50.9935 21.488H48.9935C48.9935 22.2073 48.8503 22.77 48.6059 23.2129L50.3571 24.1791ZM49.9935 22.488H55.1455V20.488H49.9935V22.488ZM54.1455 21.488C54.1455 23.181 53.7922 24.5928 53.1253 25.7599L54.8617 26.7521C55.7308 25.2312 56.1455 23.4643 56.1455 21.488H54.1455ZM53.1227 25.7644C52.4784 26.9056 51.5407 27.795 50.277 28.4363L51.182 30.2197C52.777 29.4104 54.0152 28.2517 54.8643 26.7476L53.1227 25.7644ZM50.2715 28.439C49.0336 29.0767 47.5229 29.416 45.7055 29.416V31.416C47.7707 31.416 49.6094 31.0299 51.1875 30.217L50.2715 28.439ZM37.3935 21.488V7.6H35.3935V21.488H37.3935ZM36.3935 8.6H41.5455V6.6H36.3935V8.6ZM40.5455 7.6V21.488H42.5455V7.6H40.5455ZM41.5455 20.488H36.3935V22.488H41.5455V20.488ZM50.9935 21.488V7.6H48.9935V21.488H50.9935ZM49.9935 8.6H55.1455V6.6H49.9935V8.6ZM54.1455 7.6V21.488H56.1455V7.6H54.1455ZM55.1455 20.488H49.9935V22.488H55.1455V20.488ZM72.4303 25.072L71.6073 25.6401C71.8044 25.9256 72.1354 26.0886 72.4819 26.0707C72.8284 26.0527 73.1409 25.8565 73.3075 25.5521L72.4303 25.072ZM60.8783 8.336L60.6416 7.36441C60.3218 7.4423 60.0608 7.67255 59.9437 7.98012C59.8266 8.28769 59.8683 8.6332 60.0553 8.90406L60.8783 8.336ZM63.3743 7.728L63.3326 6.72887C63.2669 6.73161 63.2015 6.74083 63.1376 6.75641L63.3743 7.728ZM66.4463 7.6L67.2757 7.04146C67.0816 6.75321 66.7518 6.5864 66.4046 6.60087L66.4463 7.6ZM75.0223 20.336L75.8995 20.8161C76.0789 20.4882 76.0605 20.0875 75.8517 19.7775L75.0223 20.336ZM60.7822 30H59.7822C59.7822 30.5523 60.23 31 60.7822 31V30ZM60.7822 7.6V6.6C60.23 6.6 59.7822 7.04771 59.7822 7.6H60.7822ZM65.9342 7.6H66.9342C66.9342 7.04771 66.4865 6.6 65.9342 6.6V7.6ZM65.9342 30V31C66.4865 31 66.9342 30.5523 66.9342 30H65.9342ZM72.4303 25.072L71.558 25.5611C71.7272 25.8628 72.0404 26.0557 72.3859 26.071C72.7315 26.0863 73.0605 25.922 73.2557 25.6365L72.4303 25.072ZM69.7743 20.336L68.9457 19.776C68.734 20.0893 68.7171 20.4953 68.902 20.8251L69.7743 20.336ZM78.3823 7.6L78.423 6.60083C78.0767 6.5867 77.7478 6.75288 77.5537 7.04003L78.3823 7.6ZM81.5182 7.728L81.7393 6.75274C81.6801 6.73931 81.6197 6.73131 81.559 6.72883L81.5182 7.728ZM83.9183 8.272L84.7437 8.83646C84.9306 8.56308 84.9701 8.21488 84.8491 7.9066C84.7281 7.59832 84.4623 7.36995 84.1393 7.29674L83.9183 8.272ZM78.8942 30H77.8942C77.8942 30.5523 78.342 31 78.8942 31V30ZM78.8942 7.6V6.6C78.342 6.6 77.8942 7.04771 77.8942 7.6H78.8942ZM84.0462 7.6H85.0462C85.0462 7.04771 84.5985 6.6 84.0462 6.6V7.6ZM84.0462 30V31C84.5985 31 85.0462 30.5523 85.0462 30H84.0462ZM73.2532 24.5039L61.7012 7.76793L60.0553 8.90406L71.6073 25.6401L73.2532 24.5039ZM61.1149 9.30759L63.6109 8.69959L63.1376 6.75641L60.6416 7.36441L61.1149 9.30759ZM63.4159 8.72713L66.4879 8.59913L66.4046 6.60087L63.3326 6.72887L63.4159 8.72713ZM65.6168 8.15854L74.1928 20.8945L75.8517 19.7775L67.2757 7.04146L65.6168 8.15854ZM74.145 19.8559L71.553 24.5919L73.3075 25.5521L75.8995 20.8161L74.145 19.8559ZM61.7822 30V7.6H59.7822V30H61.7822ZM60.7822 8.6H65.9342V6.6H60.7822V8.6ZM64.9342 7.6V30H66.9342V7.6H64.9342ZM65.9342 29H60.7822V31H65.9342V29ZM73.3025 24.5829L70.6465 19.8469L68.902 20.8251L71.558 25.5611L73.3025 24.5829ZM70.6028 20.896L79.2108 8.15997L77.5537 7.04003L68.9457 19.776L70.6028 20.896ZM78.3415 8.59917L81.4775 8.72717L81.559 6.72883L78.423 6.60083L78.3415 8.59917ZM81.2972 8.70326L83.6972 9.24726L84.1393 7.29674L81.7393 6.75274L81.2972 8.70326ZM83.0928 7.70754L71.6048 24.5075L73.2557 25.6365L84.7437 8.83646L83.0928 7.70754ZM79.8942 30V7.6H77.8942V30H79.8942ZM78.8942 8.6H84.0462V6.6H78.8942V8.6ZM83.0462 7.6V30H85.0462V7.6H83.0462ZM84.0462 29H78.8942V31H84.0462V29ZM92.9833 25.264L91.9839 25.3012C91.999 25.7054 92.2561 26.0608 92.6354 26.2015C93.0146 26.3423 93.4413 26.2406 93.7164 25.944L92.9833 25.264ZM92.7273 18.384L91.9913 17.707C91.8128 17.901 91.7181 18.1577 91.7279 18.4212L92.7273 18.384ZM102.647 7.6V6.6C102.368 6.6 102.101 6.71714 101.911 6.92299L102.647 7.6ZM109.367 7.6L110.1 8.28004C110.371 7.98851 110.443 7.56447 110.284 7.20003C110.125 6.83558 109.765 6.6 109.367 6.6V7.6ZM90.0073 30H89.0073C89.0073 30.5523 89.455 31 90.0073 31V30ZM90.0073 7.6V6.6C89.455 6.6 89.0073 7.04771 89.0073 7.6H90.0073ZM95.1273 7.6H96.1273C96.1273 7.04771 95.6795 6.6 95.1273 6.6V7.6ZM95.1273 30V31C95.6795 31 96.1273 30.5523 96.1273 30H95.1273ZM103.319 30L102.528 30.6113C102.717 30.8565 103.009 31 103.319 31V30ZM94.5193 18.608L93.8954 17.8265C93.4686 18.1672 93.3941 18.7872 93.7279 19.2193L94.5193 18.608ZM98.3273 15.568L99.113 14.9495C98.9482 14.7402 98.7068 14.6052 98.4421 14.5746C98.1775 14.544 97.9116 14.6203 97.7034 14.7865L98.3273 15.568ZM109.687 30V31C110.07 31 110.42 30.7813 110.587 30.4367C110.754 30.0922 110.71 29.6824 110.473 29.3815L109.687 30ZM93.9826 25.2268L93.7266 18.3468L91.7279 18.4212L91.9839 25.3012L93.9826 25.2268ZM93.4632 19.061L103.383 8.27701L101.911 6.92299L91.9913 17.707L93.4632 19.061ZM102.647 8.6H109.367V6.6H102.647V8.6ZM108.634 6.91996L92.2501 24.584L93.7164 25.944L110.1 8.28004L108.634 6.91996ZM91.0073 30V7.6H89.0073V30H91.0073ZM90.0073 8.6H95.1273V6.6H90.0073V8.6ZM94.1273 7.6V30H96.1273V7.6H94.1273ZM95.1273 29H90.0073V31H95.1273V29ZM104.111 29.3887L95.3106 17.9967L93.7279 19.2193L102.528 30.6113L104.111 29.3887ZM95.1432 19.3895L98.9511 16.3495L97.7034 14.7865L93.8954 17.8265L95.1432 19.3895ZM97.5415 16.1865L108.901 30.6185L110.473 29.3815L99.113 14.9495L97.5415 16.1865ZM109.687 29H103.319V31H109.687V29ZM125.411 25.072L124.589 25.6401C124.786 25.9256 125.117 26.0886 125.463 26.0707C125.81 26.0527 126.122 25.8565 126.289 25.5521L125.411 25.072ZM113.86 8.336L113.623 7.36441C113.303 7.4423 113.042 7.67255 112.925 7.98012C112.808 8.28769 112.85 8.6332 113.037 8.90406L113.86 8.336ZM116.355 7.728L116.314 6.72887C116.248 6.73161 116.183 6.74083 116.119 6.75641L116.355 7.728ZM119.428 7.6L120.257 7.04146C120.063 6.75321 119.733 6.5864 119.386 6.60087L119.428 7.6ZM128.004 20.336L128.881 20.8161C129.06 20.4882 129.042 20.0875 128.833 19.7775L128.004 20.336ZM113.764 30H112.764C112.764 30.5523 113.211 31 113.764 31V30ZM113.764 7.6V6.6C113.211 6.6 112.764 7.04771 112.764 7.6H113.764ZM118.916 7.6H119.916C119.916 7.04771 119.468 6.6 118.916 6.6V7.6ZM118.916 30V31C119.468 31 119.916 30.5523 119.916 30H118.916ZM125.411 25.072L124.539 25.5611C124.708 25.8628 125.022 26.0557 125.367 26.071C125.713 26.0863 126.042 25.922 126.237 25.6365L125.411 25.072ZM122.756 20.336L121.927 19.776C121.715 20.0893 121.698 20.4953 121.883 20.8251L122.756 20.336ZM131.364 7.6L131.404 6.60083C131.058 6.5867 130.729 6.75288 130.535 7.04003L131.364 7.6ZM134.5 7.728L134.721 6.75274C134.661 6.73931 134.601 6.73131 134.54 6.72883L134.5 7.728ZM136.9 8.272L137.725 8.83646C137.912 8.56308 137.951 8.21488 137.83 7.9066C137.709 7.59832 137.444 7.36995 137.121 7.29674L136.9 8.272ZM131.876 30H130.876C130.876 30.5523 131.323 31 131.876 31V30ZM131.876 7.6V6.6C131.323 6.6 130.876 7.04771 130.876 7.6H131.876ZM137.028 7.6H138.028C138.028 7.04771 137.58 6.6 137.028 6.6V7.6ZM137.028 30V31C137.58 31 138.028 30.5523 138.028 30H137.028ZM126.234 24.5039L114.682 7.76793L113.037 8.90406L124.589 25.6401L126.234 24.5039ZM114.096 9.30759L116.592 8.69959L116.119 6.75641L113.623 7.36441L114.096 9.30759ZM116.397 8.72713L119.469 8.59913L119.386 6.60087L116.314 6.72887L116.397 8.72713ZM118.598 8.15854L127.174 20.8945L128.833 19.7775L120.257 7.04146L118.598 8.15854ZM127.126 19.8559L124.534 24.5919L126.289 25.5521L128.881 20.8161L127.126 19.8559ZM114.764 30V7.6H112.764V30H114.764ZM113.764 8.6H118.916V6.6H113.764V8.6ZM117.916 7.6V30H119.916V7.6H117.916ZM118.916 29H113.764V31H118.916V29ZM126.284 24.5829L123.628 19.8469L121.883 20.8251L124.539 25.5611L126.284 24.5829ZM123.584 20.896L132.192 8.15997L130.535 7.04003L121.927 19.776L123.584 20.896ZM131.323 8.59917L134.459 8.72717L134.54 6.72883L131.404 6.60083L131.323 8.59917ZM134.278 8.70326L136.678 9.24726L137.121 7.29674L134.721 6.75274L134.278 8.70326ZM136.074 7.70754L124.586 24.5075L126.237 25.6365L137.725 8.83646L136.074 7.70754ZM132.876 30V7.6H130.876V30H132.876ZM131.876 8.6H137.028V6.6H131.876V8.6ZM136.028 7.6V30H138.028V7.6H136.028ZM137.028 29H131.876V31H137.028V29Z" fill="#F97316"/>
</svg>
